<svg width="24" height="24" viewBox="0 0 24 24" fill="none" xmlns="http://www.w3.org/2000/svg">
<g clip-path="url(#clip0_176_38)">
<path d="M19.7 0.5H4.3C2.2 0.5 0.5 2.2 0.5 4.3V19.7C0.5 21.8 2.2 23.5 4.3 23.5H19.7C21.8 23.5 23.5 21.8 23.5 19.7V4.3C23.5 2.2 21.8 0.5 19.7 0.5ZM8 18.7H5.9V9.9H8V18.7ZM6.9 7.7C6.1 7.7 5.5 7.2 5.5 6.5C5.5 5.8 6.1 5.3 6.9 5.3C7.7 5.3 8.3 5.8 8.3 6.5C8.3 7.2 7.7 7.7 6.9 7.7ZM18.5 18.7H16V15C16 13.3 15.2 12.3 13.8 12.3C12.8 12.3 12.1 12.8 11.7 13.8C11.6 14.1 11.6 14.4 11.6 14.7V18.7H9C9 17 9 11.7 9 9.9H11.5V10.9C11.5 11.1 11.7 11.3 11.9 11.4C12.1 11.4 12.4 11.3 12.4 11.1C12.5 10.7 13.4 9.8 15 9.8C17.2 9.8 18.4 11.2 18.4 13.8V18.7H18.5Z" fill="black"/>
</g>
<defs>
<clipPath id="clip0_176_38">
<rect width="24" height="24" fill="white"/>
</clipPath>
</defs>
</svg>
