<svg width="12" height="13" viewBox="0 0 12 13" fill="none" xmlns="http://www.w3.org/2000/svg">
<path d="M9.345 6.34693C9.06 6.27193 8.725 6.23193 8.325 6.23193C7.77 6.23193 7.565 6.36693 7.28 6.58193C7.265 6.59193 7.25 6.60693 7.235 6.62193L6.76 7.12693C6.36 7.54693 5.64 7.55193 5.24 7.12193L4.765 6.62193C4.75 6.60693 4.735 6.59193 4.72 6.58193C4.435 6.36693 4.23 6.23193 3.675 6.23193C3.275 6.23193 2.94 6.27193 2.655 6.34693C1.465 6.66693 1.465 7.61193 1.465 8.44193V8.90693C1.465 10.1619 1.465 11.5819 4.14 11.5819H7.86C9.635 11.5819 10.535 10.6819 10.535 8.90693V8.44193C10.535 7.61193 10.535 6.66693 9.345 6.34693ZM7.165 9.78193H4.835C4.645 9.78193 4.49 9.62693 4.49 9.43193C4.49 9.23693 4.645 9.08193 4.835 9.08193H7.165C7.355 9.08193 7.51 9.23693 7.51 9.43193C7.51 9.62693 7.355 9.78193 7.165 9.78193Z" fill="white"/>
<path opacity="0.4" d="M7.39499 1.58203H4.60499C2.39499 1.58203 2.39499 2.75703 2.39499 3.79203V6.68703C2.39499 6.79703 2.44499 6.89703 2.52999 6.96203C2.61499 7.02703 2.72999 7.05203 2.83499 7.02203C3.05999 6.96203 3.33999 6.93203 3.67499 6.93203C4.00999 6.93203 4.07999 6.97203 4.27999 7.12203L4.73499 7.60203C5.05999 7.95203 5.52499 8.15203 6.00499 8.15203C6.48499 8.15203 6.94499 7.95203 7.27499 7.60203L7.72999 7.12203C7.92999 6.97203 7.99999 6.93203 8.33499 6.93203C8.66999 6.93203 8.94999 6.96203 9.17499 7.02203C9.27999 7.05203 9.38999 7.02703 9.47999 6.96203C9.56499 6.89703 9.61499 6.79203 9.61499 6.68703V3.79203C9.60499 2.75703 9.60499 1.58203 7.39499 1.58203Z" fill="white"/>
<path opacity="0.4" d="M7.50999 9.43203C7.50999 9.62703 7.35499 9.78203 7.16499 9.78203H4.83499C4.64499 9.78203 4.48999 9.62703 4.48999 9.43203C4.48999 9.23703 4.64499 9.08203 4.83499 9.08203H7.16499C7.35499 9.08203 7.50999 9.23703 7.50999 9.43203Z" fill="white"/>
</svg>
