<svg width="45" height="45" viewBox="0 0 45 45" fill="none" xmlns="http://www.w3.org/2000/svg">
<path d="M29.6299 28.0386C29.4153 28.1732 29.1511 28.2286 28.8754 28.1654C28.3424 28.0432 28.0025 27.5009 28.1247 26.9679L30.4599 16.7859L20.2779 14.4508C19.7449 14.3285 19.4049 13.7863 19.5272 13.2533C19.6494 12.7203 20.1917 12.3804 20.7247 12.5026L31.8807 15.0612C32.4137 15.1834 32.7537 15.7257 32.6314 16.2586L30.0729 27.4147C30.0097 27.6904 29.8446 27.904 29.6299 28.0386Z" fill="#322A44"/>
<path d="M31.9964 17.003L12.9834 28.922C12.5202 29.2123 11.8954 29.069 11.605 28.6058C11.3146 28.1426 11.458 27.5178 11.9211 27.2274L30.9341 15.3084C31.3973 15.0181 32.0221 15.1614 32.3125 15.6246C32.6029 16.0877 32.4595 16.7126 31.9964 17.003Z" fill="#322A44"/>
</svg>
