<svg width="12" height="13" viewBox="0 0 12 13" fill="none" xmlns="http://www.w3.org/2000/svg">
<path opacity="0.4" d="M5.895 7.68703L4.26 9.32203C4.08 9.16203 3.905 8.99703 3.735 8.82703C3.22 8.30703 2.755 7.76203 2.34 7.19203C1.93 6.62203 1.6 6.05203 1.36 5.48703C1.12 4.91703 1 4.37203 1 3.85203C1 3.51203 1.06 3.18703 1.18 2.88703C1.3 2.58203 1.49 2.30203 1.755 2.05203C2.075 1.73703 2.425 1.58203 2.795 1.58203C2.935 1.58203 3.075 1.61203 3.2 1.67203C3.33 1.73203 3.445 1.82203 3.535 1.95203L4.695 3.58703C4.785 3.71203 4.85 3.82703 4.895 3.93703C4.94 4.04203 4.965 4.14703 4.965 4.24203C4.965 4.36203 4.93 4.48203 4.86 4.59703C4.795 4.71203 4.7 4.83203 4.58 4.95203L4.2 5.34703C4.145 5.40203 4.12 5.46703 4.12 5.54703C4.12 5.58703 4.125 5.62203 4.135 5.66203C4.15 5.70203 4.165 5.73203 4.175 5.76203C4.265 5.92703 4.42 6.14203 4.64 6.40203C4.865 6.66203 5.105 6.92703 5.365 7.19203C5.545 7.36703 5.72 7.53703 5.895 7.68703Z" fill="white"/>
<path d="M10.985 9.74705C10.985 9.88705 10.96 10.0321 10.91 10.1721C10.895 10.2121 10.88 10.2521 10.86 10.2921C10.775 10.4721 10.665 10.6421 10.52 10.8021C10.275 11.0721 10.005 11.2671 9.69999 11.3921C9.69499 11.3921 9.68999 11.3971 9.68499 11.3971C9.38999 11.5171 9.06999 11.5821 8.72499 11.5821C8.21499 11.5821 7.66999 11.4621 7.09499 11.2171C6.51999 10.9721 5.94499 10.6421 5.37499 10.2271C5.17999 10.0821 4.98499 9.93705 4.79999 9.78205L6.43499 8.14705C6.57499 8.25205 6.69999 8.33205 6.80499 8.38705C6.82999 8.39705 6.85999 8.41205 6.89499 8.42705C6.93499 8.44205 6.97499 8.44705 7.01999 8.44705C7.10499 8.44705 7.16999 8.41705 7.22499 8.36205L7.60499 7.98705C7.72999 7.86205 7.84999 7.76705 7.96499 7.70705C8.07999 7.63705 8.19499 7.60205 8.31999 7.60205C8.41499 7.60205 8.51499 7.62205 8.62499 7.66705C8.73499 7.71205 8.84999 7.77705 8.97499 7.86205L10.63 9.03705C10.76 9.12705 10.85 9.23205 10.905 9.35705C10.955 9.48205 10.985 9.60705 10.985 9.74705Z" fill="white"/>
</svg>
