<svg width="62" height="62" viewBox="0 0 62 62" fill="none" xmlns="http://www.w3.org/2000/svg">
<g clip-path="url(#clip0_164_62)">
<path d="M31.4493 13.7675C37.2112 13.7675 37.8935 13.7927 40.1596 13.8938C42.2656 13.9865 43.4028 14.3403 44.1609 14.6351C45.1634 15.0226 45.8878 15.4944 46.6376 16.2441C47.3957 17.0022 47.859 17.7183 48.2465 18.7207C48.5414 19.4789 48.8952 20.6245 48.9878 22.7221C49.0889 24.9965 49.1142 25.6789 49.1142 31.4324C49.1142 37.1944 49.0889 37.8767 48.9878 40.1427C48.8952 42.2487 48.5414 43.3859 48.2465 44.1441C47.859 45.1465 47.3873 45.871 46.6376 46.6207C45.8794 47.3789 45.1634 47.8422 44.1609 48.2297C43.4028 48.5245 42.2571 48.8783 40.1596 48.971C37.8851 49.0721 37.2028 49.0973 31.4493 49.0973C25.6873 49.0973 25.005 49.0721 22.7389 48.971C20.6329 48.8783 19.4957 48.5245 18.7376 48.2297C17.7351 47.8422 17.0107 47.3704 16.2609 46.6207C15.5028 45.8626 15.0395 45.1465 14.652 44.1441C14.3571 43.3859 14.0033 42.2403 13.9107 40.1427C13.8096 37.8683 13.7843 37.1859 13.7843 31.4324C13.7843 25.6704 13.8096 24.9881 13.9107 22.7221C14.0033 20.6161 14.3571 19.4789 14.652 18.7207C15.0395 17.7183 15.5112 16.9938 16.2609 16.2441C17.0191 15.4859 17.7351 15.0226 18.7376 14.6351C19.4957 14.3403 20.6414 13.9865 22.7389 13.8938C25.005 13.7927 25.6873 13.7675 31.4493 13.7675ZM31.4493 9.88403C25.5946 9.88403 24.8618 9.9093 22.562 10.0104C20.2707 10.1115 18.6954 10.4821 17.3308 11.0128C15.9071 11.5688 14.7025 12.3017 13.5063 13.5063C12.3017 14.7025 11.5688 15.9071 11.0128 17.3223C10.4821 18.6954 10.1115 20.2623 10.0104 22.5536C9.9093 24.8618 9.88403 25.5946 9.88403 31.4493C9.88403 37.3039 9.9093 38.0368 10.0104 40.3365C10.1115 42.6278 10.4821 44.2031 11.0128 45.5677C11.5688 46.9914 12.3017 48.196 13.5063 49.3922C14.7025 50.5884 15.9071 51.3297 17.3223 51.8772C18.6954 52.4079 20.2623 52.7786 22.5536 52.8797C24.8533 52.9808 25.5862 53.006 31.4408 53.006C37.2954 53.006 38.0283 52.9808 40.3281 52.8797C42.6194 52.7786 44.1946 52.4079 45.5593 51.8772C46.9745 51.3297 48.1791 50.5884 49.3753 49.3922C50.5715 48.196 51.3128 46.9914 51.8604 45.5762C52.3911 44.2031 52.7618 42.6362 52.8628 40.3449C52.9639 38.0452 52.9892 37.3123 52.9892 31.4577C52.9892 25.6031 52.9639 24.8702 52.8628 22.5704C52.7618 20.2791 52.3911 18.7039 51.8604 17.3392C51.3297 15.9071 50.5968 14.7025 49.3922 13.5063C48.196 12.3101 46.9914 11.5688 45.5762 11.0213C44.2031 10.4906 42.6362 10.1199 40.3449 10.0188C38.0368 9.9093 37.3039 9.88403 31.4493 9.88403Z" fill="#000100"/>
<path d="M31.4493 20.3718C25.3335 20.3718 20.3718 25.3335 20.3718 31.4493C20.3718 37.565 25.3335 42.5267 31.4493 42.5267C37.565 42.5267 42.5267 37.565 42.5267 31.4493C42.5267 25.3335 37.565 20.3718 31.4493 20.3718ZM31.4493 38.6349C27.4816 38.6349 24.2637 35.4169 24.2637 31.4493C24.2637 27.4816 27.4816 24.2637 31.4493 24.2637C35.4169 24.2637 38.6349 27.4816 38.6349 31.4493C38.6349 35.4169 35.4169 38.6349 31.4493 38.6349Z" fill="#000100"/>
<path d="M45.5508 19.9338C45.5508 21.3659 44.3883 22.5199 42.9647 22.5199C41.5326 22.5199 40.3785 21.3574 40.3785 19.9338C40.3785 18.5017 41.541 17.3477 42.9647 17.3477C44.3883 17.3477 45.5508 18.5102 45.5508 19.9338Z" fill="#000100"/>
</g>
<defs>
<clipPath id="clip0_164_62">
<rect width="43.1304" height="43.1304" fill="white" transform="translate(9.88403 9.88403)"/>
</clipPath>
</defs>
</svg>
