<svg width="52" height="52" viewBox="0 0 52 52" fill="none" xmlns="http://www.w3.org/2000/svg">
<path d="M24.1243 2.28477C24.7686 0.543531 27.2314 0.543534 27.8757 2.28477L33.5135 17.5206C33.7161 18.0681 34.1477 18.4997 34.6951 18.7023L49.931 24.3401C51.6722 24.9844 51.6722 27.4471 49.931 28.0915L34.6951 33.7292C34.1477 33.9318 33.7161 34.3634 33.5135 34.9109L27.8757 50.1468C27.2314 51.888 24.7686 51.888 24.1243 50.1467L18.4865 34.9109C18.2839 34.3634 17.8523 33.9318 17.3049 33.7292L2.06901 28.0915C0.327774 27.4471 0.327775 24.9844 2.06901 24.3401L17.3049 18.7023C17.8523 18.4997 18.2839 18.0681 18.4865 17.5206L24.1243 2.28477Z" fill="#B99EFF"/>
</svg>
