<svg width="34" height="34" viewBox="0 0 34 34" fill="none" xmlns="http://www.w3.org/2000/svg">
<path d="M22.2225 21.0288C22.0615 21.1297 21.8633 21.1714 21.6565 21.1239C21.2568 21.0323 21.0018 20.6256 21.0935 20.2258L22.8449 12.5893L15.2084 10.838C14.8087 10.7463 14.5537 10.3396 14.6454 9.93985C14.7371 9.54011 15.1438 9.28516 15.5435 9.37684L23.9106 11.2957C24.3103 11.3874 24.5653 11.7941 24.4736 12.1939L22.5547 20.5609C22.5072 20.7677 22.3834 20.9279 22.2225 21.0288Z" fill="#FFF5F5"/>
<path d="M23.9973 12.7522L9.7376 21.6914C9.39022 21.9092 8.92155 21.8017 8.70378 21.4543C8.48601 21.1069 8.59349 20.6383 8.94088 20.4205L23.2006 11.4813C23.548 11.2635 24.0166 11.371 24.2344 11.7184C24.4522 12.0657 24.3447 12.5344 23.9973 12.7522Z" fill="#FFF5F5"/>
</svg>
